#!OML:ASF H:\Punching\Project 1\Capture day 1\Session 1\female.ASF
:FULLY-SPECIFIED
:DEGREES
919
root 0.222896 15.6705 6.1423 12.653 -15.4295 0.398125
lowerback -0.525012 -0.505535 4.89838
upperback -5.68971 -0.578296 -0.224132
thorax -5.67109 -0.543319 -2.94951
lowerneck -0.589134 13.7425 19.6216
upperneck 21.4756 21.7566 -17.9069
head 11.2825 10.472 -6.90383
rclavicle -1.50517e-014 -2.98177e-015
rhumerus -33.6549 19.5034 -93.8083
rradius 88.4293
rwrist -27.8083
rhand -18.8225 -7.01556
rfingers 7.12502
rthumb 7.47647 -36.8634
lclavicle -1.50517e-014 -2.98177e-015
lhumerus -27.6151 -12.3528 88.9796
lradius 84.7184
lwrist 28.3232
lhand -10.0967 30.4714
lfingers 7.12502
lthumb 15.8905 59.8395
rfemur -21.3066 6.37453 17.6712
rtibia 31.9291
rfoot -21.6533 -13.7985
rtoes -7.06599
lfemur -24.8166 4.99392 -15.7216
ltibia 47.4037
lfoot -13.2145 6.06653
ltoes -17.4614
920
root 0.246147 15.6719 6.14945 12.6481 -15.684 0.334801
lowerback -0.397687 -0.583315 4.99478
upperback -5.61124 -0.675188 -0.237526
thorax -5.67199 -0.595013 -3.01241
lowerneck -0.392835 13.8712 19.767
upperneck 21.4291 21.9964 -18.0664
head 11.3252 10.5925 -6.9496
rclavicle -1.0051e-014 7.7526e-015
rhumerus -31.9074 20.8299 -94.4007
rradius 90.6459
rwrist -28.3657
rhand -19.3854 -6.80563
rfingers 7.12502
rthumb 6.93315 -36.6721
lclavicle -1.0051e-014 7.7526e-015
lhumerus -25.8987 -13.2149 89.5567
lradius 86.7631
lwrist 30.5185
lhand -10.1342 30.8416
lfingers 7.12502
lthumb 15.8544 60.2125
rfemur -21.309 6.30773 17.6438
rtibia 31.8426
rfoot -21.4661 -13.7465
rtoes -7.27471
lfemur -25.9478 5.60234 -15.4205
ltibia 49.1376
lfoot -12.141 4.58253
ltoes -16.9967
921
root 0.270659 15.6729 6.15828 12.6492 -15.9401 0.25799
lowerback -0.266334 -0.6704 5.08376
upperback -5.5421 -0.783493 -0.236678
thorax -5.68613 -0.652087 -3.05533
lowerneck -0.168378 14.0001 19.9196
upperneck 21.3797 22.2439 -18.2381
head 11.367 10.7183 -7.0013
rclavicle 8.08805e-015 -1.17283e-014
rhumerus -30.0227 22.235 -94.9539
rradius 92.7341
rwrist -28.7179
rhand -19.9016 -6.65723
rfingers 7.12502
rthumb 6.43478 -36.5395
lclavicle 8.08805e-015 -1.17283e-014
lhumerus -24.1427 -14.1076 90.1298
lradius 88.7758
lwrist 32.8123
lhand -10.1875 31.1505
lfingers 7.12502
lthumb 15.803 60.5255
rfemur -21.3117 6.25653 17.6239
rtibia 31.7579
rfoot -21.2656 -13.6958
rtoes -7.4173
lfemur -27.0095 6.17317 -15.0953
ltibia 50.665
lfoot -11.2687 3.20763
ltoes -16.559
922
root 0.296378 15.6736 6.16907 12.6501 -16.2037 0.171179
lowerback -0.132832 -0.762001 5.1702
upperback -5.47716 -0.897258 -0.230365
thorax -5.70667 -0.711798 -3.09044
lowerneck 0.0757848 14.1293 20.0865
upperneck 21.3315 22.4968 -18.4174
head 11.4111 10.8484 -7.05816
rclavicle -2.6047e-014 5.76476e-015
rhumerus -27.9989 23.6937 -95.4642
rradius 94.6767
rwrist -28.8656
rhand -20.377 -6.51206
rfingers 7.12502
rthumb 5.97584 -36.4078
lclavicle -2.6047e-014 5.76476e-015
lhumerus -22.3503 -15.0339 90.6864
lradius 90.7375
lwrist 35.1134
lhand -10.1937 31.4011
lfingers 7.12502
lthumb 15.7971 60.7765
rfemur -21.3068 6.22808 17.6075
rtibia 31.6714
rfoot -21.0517 -13.6504
rtoes -7.52036
lfemur -27.9831 6.7113 -14.752
ltibia 51.9508
lfoot -10.6531 2.05396
ltoes -16.2803
923
root 0.323269 15.6743 6.18198 12.6461 -16.4829 0.082182
lowerback 0.0144536 -0.854963 5.24197
upperback -5.42155 -1.01181 -0.218507
thorax -5.74489 -0.771635 -3.11081
lowerneck 0.339651 14.2573 20.2557
upperneck 21.2909 22.7529 -18.5958
head 11.4566 10.9817 -7.11586
rclavicle 4.31114e-015 -2.42517e-014
rhumerus -25.853 25.1967 -95.9266
rradius 96.4588
rwrist -28.8158
rhand -20.8318 -6.3334
rfingers 7.12502
rthumb 5.53677 -36.2411
lclavicle 4.31114e-015 -2.42517e-014
lhumerus -20.5476 -15.9818 91.235
lradius 92.6269
lwrist 37.3397
lhand -10.1312 31.5611
lfingers 7.12502
lthumb 15.8573 60.9318
rfemur -21.2917 6.22854 17.5844
rtibia 31.5858
rfoot -20.8346 -13.6103
rtoes -7.58733
lfemur -28.8558 7.227 -14.4003
ltibia 52.9617
lfoot -10.3022 1.22558
ltoes -16.1684
924
root 0.351328 15.675 6.19693 12.63 -16.7756 0.00228179
lowerback 0.180417 -0.948534 5.28995
upperback -5.37274 -1.12641 -0.205377
thorax -5.80053 -0.83084 -3.1157
lowerneck 0.614385 14.3832 20.4305
upperneck 21.2599 23.0104 -18.7754
head 11.5064 11.1168 -7.17548
rclavicle 1.97791e-014 1.63003e-014
rhumerus -23.6008 26.7408 -96.3362
rradius 98.0829
rwrist -28.6093
rhand -21.2891 -6.07304
rfingers 7.12502
rthumb 5.09522 -35.9918
lclavicle 1.97791e-014 1.63003e-014
lhumerus -18.7472 -16.9379 91.7742
lradius 94.4316
lwrist 39.3977
lhand -9.94124 31.659
lfingers 7.12502
lthumb 16.0402 61.015
rfemur -21.2603 6.25342 17.5444
rtibia 31.4977
rfoot -20.6151 -13.5789
rtoes -7.63671
lfemur -29.6176 7.71746 -14.0491
ltibia 53.6662
lfoot -10.1648 0.798152
ltoes -16.1406
